<?xml version="1.0" encoding="UTF-8"?>
<svg id="Capa_1" data-name="Capa 1" xmlns="http://www.w3.org/2000/svg" viewBox="0 0 558.53 213.33">
  <defs>
    <style>
      .cls-1 { fill: #0B0B0C; stroke-width: 0px; }
      .cls-2 { fill: #B8C9FF; stroke-width: 0px; }
    </style>
  </defs>
  <g>
    <path class="cls-2" d="M162.76,165.01c-.39.33-.79.63-1.2.93.43.29.86.56,1.3.81.4-.3.8-.61,1.17-.94-.43-.26-.84-.53-1.27-.8Z"/>
    <path class="cls-2" d="M165.13,164.79c-.36.34-.73.69-1.1,1.01.43.26.84.51,1.27.76.39-.33.74-.67,1.09-1.03-.41-.23-.84-.49-1.26-.74ZM161.56,165.93c.43.29.86.56,1.3.81.4-.3.8-.61,1.17-.94-.43-.26-.84-.53-1.27-.8-.39.33-.79.63-1.2.93Z"/>
    <path class="cls-2" d="M202.7,175.63c-.47,2-2.1,3.42-4.02,3.7-.57.09-1.17.06-1.79-.09-11.32-2.62-21.94-6.93-31.6-12.68.39-.33.74-.67,1.09-1.03-.41-.23-.84-.49-1.26-.74-.36.34-.73.69-1.1,1.01-.43-.26-.84-.53-1.27-.8-.39.33-.79.63-1.2.93.43.29.86.56,1.3.81-3.3,2.5-7.29,4.12-11.63,4.49-.66.06-1.31.09-1.97.09-4.63,0-9.16-1.4-12.93-4.04-.59-.4-1.19-.87-1.76-1.36-1.03-.87-1.97-1.49-2.9-1.87-1.8-.76-3.06-.96-3.63-.87-.37.04-.9.21-1.41.39-1.23.41-2.52.73-3.8.94-1.21.2-2.49.3-3.77.3-12.23,0-22.61-9.55-23.65-21.72-.01-.24-.04-.64-.06-1.06-.04-1.13-.16-2.06-.37-2.84-1.17-4.36-4.73-7.8-9.09-8.76-.39-.09-.84-.13-1.4-.13h-.01c-.9,0-1.79-.04-2.66-.13h-.27c-14.62-1.5-25.66-13.72-25.66-28.44,0-11.78,7.39-22.51,18.39-26.7l.36-.11c.17-.06.66-.23.9-.31l.1-.04c5.12-2,8.42-6.86,8.42-12.36,0-.21-.01-.43-.01-.63l-.04-.69c-.56-14.39,10.65-26.64,24.98-27.3,12.41-.57,23.6,7.72,26.64,19.71.21.84.34,1.64.44,2.36.06.36.11.71.19,1.09.24,1.23,1.23,2.59,2.8,3.8,1.4,1.1,3.26,1.63,5.26,1.47.33-.03.69-.04,1.04-.06,4.67-.21,9.06.93,12.69,3.29,6.07,3.96,9.7,10.65,9.7,17.88,0,4.4-1.33,8.62-3.84,12.22-.9,1.29-1.92,2.33-2.79,3.19-.04.04-.09.09-.11.11-.23.26-.47.63-.53,1.17-.13.96.4,1.89,1.29,2.26.07.03.2.06.33.1l.33.1c6.93,2.09,11.76,8.93,11.76,16.67,0,5.15-2.23,10.03-6.12,13.39-.56.5-1.2.99-1.87,1.42.37.43.74.87,1.1,1.36,3.52,4.67,5.07,10.45,4.4,16.26-.21,1.86-.66,3.66-1.3,5.35-.17.46-.34.9-.54,1.33.41.24.83.49,1.24.73,8.59,4.99,18.01,8.76,28.01,11.08,2.6.6,4.22,3.2,3.62,5.79Z"/>
  </g>
  <g>
    <path class="cls-2" d="M135.69,68.3c-.25.26-.51.51-.79.75-.31-.18-.61-.36-.93-.55.27-.24.54-.49.8-.74.3.19.61.37.92.54Z"/>
    <path class="cls-2" d="M134.77,67.76c-.26.25-.53.5-.8.74.31.19.61.37.93.55.28-.24.54-.49.79-.75-.3-.17-.61-.35-.92-.54ZM132.17,68.6c.31.21.62.41.95.59.29-.22.58-.45.85-.69-.31-.19-.61-.39-.93-.58-.28.24-.57.46-.87.68Z"/>
  </g>
  <g>
    <g>
      <path class="cls-1" d="M178.58,126.07c.67-.43,1.31-.91,1.87-1.41,3.89-3.36,6.12-8.25,6.12-13.39,0-7.73-4.83-14.58-11.76-16.67l-.33-.1c-.13-.04-.26-.07-.33-.1-.89-.37-1.42-1.3-1.29-2.26.06-.54.3-.91.53-1.17.03-.03.07-.07.11-.11.87-.86,1.89-1.9,2.79-3.19,2.52-3.6,3.84-7.82,3.84-12.22,0-7.23-3.63-13.92-9.7-17.88-3.63-2.36-8.02-3.5-12.69-3.29-.36.01-.71.03-1.04.06-2,.16-3.86-.37-5.26-1.47-1.57-1.21-2.56-2.57-2.8-3.8-.07-.37-.13-.73-.19-1.09-.1-.71-.23-1.52-.44-2.36-3.04-11.99-14.24-20.28-26.64-19.71-14.34.66-25.54,12.91-24.98,27.3l.04.69c0,.2.01.41.01.63,0,5.5-3.3,10.36-8.42,12.36l-.1.04c-.24.09-.73.26-.9.31l-.36.11c-11.01,4.19-18.39,14.92-18.39,26.7,0,14.72,11.03,26.94,25.66,28.43h.27c.87.1,1.76.14,2.66.14h.01c.56,0,1.01.04,1.4.13,4.36.96,7.92,4.4,9.09,8.76.21.79.33,1.72.37,2.84.01.41.04.81.06,1.06,1.04,12.18,11.42,21.72,23.65,21.72,1.29,0,2.56-.1,3.77-.3,1.29-.21,2.57-.53,3.8-.94.51-.17,1.04-.34,1.41-.39.57-.09,1.83.11,3.63.87.93.39,1.87,1,2.9,1.87.57.49,1.17.96,1.76,1.36,3.77,2.64,8.3,4.04,12.93,4.04.66,0,1.31-.03,1.97-.09,4.34-.37,8.33-1.99,11.63-4.49.4-.3.8-.61,1.17-.94.37-.33.74-.67,1.1-1.01,1.62-1.6,2.99-3.44,4.06-5.47.23-.41.44-.84.64-1.29.2-.43.37-.87.54-1.33.64-1.69,1.09-3.49,1.3-5.35.67-5.82-.89-11.59-4.4-16.26-.36-.49-.73-.93-1.1-1.36ZM175.23,145.75c-.4-.29-.81-.59-1.21-.89-.13.49-.3.94-.51,1.39-.91,2.13-2.42,3.96-4.27,5.3-.4.3-.84.57-1.29.83.41.31.81.61,1.23.91-.44.29-.9.53-1.37.74-1.5.73-3.14,1.19-4.87,1.33-.43.04-.87.06-1.3.06-2.96,0-5.77-.87-8.2-2.57-.37-.26-.74-.54-1.1-.84-1.67-1.43-3.32-2.49-5.05-3.2-2.97-1.26-5.59-1.76-7.92-1.46-1.07.14-2.07.44-2.99.76-.77.27-1.6.47-2.46.6-.79.13-1.62.2-2.46.2-7.99,0-14.78-6.25-15.45-14.21-.01-.16-.03-.4-.03-.64-.07-1.74-.29-3.27-.66-4.67-1.99-7.4-7.82-13.02-15.25-14.66-.97-.23-2.02-.33-3.2-.33h-.53c-.53-.03-1.06-.06-1.56-.1-10.48-1.13-18.27-9.83-18.27-20.24,0-8.3,5.19-15.91,12.92-18.94.74-.23,1.26-.41,1.64-.59,8.28-3.3,13.59-11.13,13.59-20.01,0-.36,0-.73-.03-1.1,0-.16-.01-.3-.03-.46-.39-9.98,7.3-18.38,17.14-18.84,8.55-.39,16.22,5.3,18.31,13.53.1.41.19.96.27,1.54.07.47.14.96.24,1.44.63,3.22,2.64,6.22,5.8,8.7,3.02,2.36,6.9,3.49,10.95,3.19.26-.01.53-.03.81-.04,2.92-.14,5.63.54,7.82,1.97,3.73,2.43,5.96,6.53,5.96,10.98,0,2.7-.81,5.3-2.36,7.5-.51.73-1.19,1.43-1.79,2.02-.2.19-.39.39-.54.56-1.4,1.59-2.27,3.52-2.53,5.6-.57,4.55,1.99,9,6.2,10.83.49.21.93.34,1.29.44l.24.07c3.43,1.03,5.93,4.73,5.93,8.79,0,2.76-1.21,5.39-3.32,7.2-.29.26-.63.5-.97.73-3.13,2.03-4.52,5.8-3.44,9.38.29,1,.83,1.9,1.59,2.72.29.31.59.67.9,1.09,2.24,2.99,3.23,6.66,2.8,10.38-.06.53-.14,1.04-.27,1.54-.1.5-.24.99-.41,1.46Z"/>
      <path class="cls-1" d="M174.01,144.87c-.4-.3-.81-.6-1.21-.91-19.55-14.94-33.42-36.79-38.1-61.93-.49-2.62-3-4.34-5.63-3.86-2.62.49-4.34,3.02-3.86,5.63,5.12,27.41,20.2,51.27,41.46,67.63.41.31.84.64,1.27.96.41.31.81.61,1.23.91.44-.26.86-.56,1.26-.87,1.82-1.39,3.29-3.22,4.26-5.32.2-.44.39-.89.54-1.36-.4-.29-.81-.59-1.21-.89-.4-.3-.81-.6-1.21-.91Z"/>
    </g>
    <g>
      <path class="cls-1" d="M215.12,167.96c-.47,2-2.1,3.42-4.02,3.7-.57.09-1.17.06-1.79-.09-11.32-2.62-21.94-6.93-31.6-12.68-.43-.24-.84-.5-1.27-.76s-.84-.53-1.27-.8c-2.04-1.27-4.04-2.63-6-4.04-.41-.3-.81-.6-1.23-.91-.43-.31-.86-.64-1.27-.96-21.27-16.36-36.35-40.22-41.46-67.63-.49-2.62,1.24-5.15,3.86-5.63,2.63-.49,5.15,1.24,5.63,3.86,4.69,25.14,18.55,46.99,38.1,61.93.4.31.81.61,1.21.91.4.3.81.6,1.21.89,1.89,1.36,3.82,2.64,5.79,3.87.41.24.81.5,1.23.74.41.24.83.49,1.24.73,8.59,4.99,18.01,8.76,28.01,11.08,2.6.6,4.22,3.2,3.62,5.79Z"/>
    </g>
  </g>
  <g>
    <path class="cls-1" d="M259.75,91c-4.07,0-7.76-.8-11.08-2.39-3.31-1.59-6.16-3.7-8.53-6.34-2.37-2.63-4.21-5.65-5.52-9.04-1.3-3.39-1.96-6.86-1.96-10.41s.69-7.25,2.07-10.64c1.38-3.39,3.29-6.39,5.71-9,2.43-2.61,5.31-4.68,8.65-6.22,3.34-1.54,6.97-2.31,10.88-2.31s7.68.82,11,2.47c3.31,1.64,6.14,3.8,8.49,6.46,2.35,2.66,4.17,5.69,5.48,9.08,1.3,3.39,1.96,6.84,1.96,10.33,0,3.71-.68,7.24-2.04,10.61-1.36,3.37-3.24,6.34-5.64,8.92-2.4,2.58-5.27,4.65-8.61,6.18-3.34,1.54-6.97,2.31-10.88,2.31ZM243.63,62.82c0,2.4.36,4.72,1.1,6.97.73,2.24,1.79,4.23,3.17,5.95,1.38,1.72,3.08,3.11,5.09,4.15,2.01,1.04,4.29,1.57,6.85,1.57s4.92-.53,6.93-1.6c2.01-1.07,3.7-2.49,5.09-4.27,1.38-1.77,2.43-3.77,3.13-5.99.7-2.22,1.06-4.47,1.06-6.77s-.38-4.72-1.13-6.97c-.76-2.24-1.83-4.23-3.21-5.95-1.38-1.72-3.08-3.09-5.09-4.11-2.01-1.02-4.27-1.53-6.77-1.53s-4.93.54-6.97,1.6c-2.03,1.07-3.73,2.48-5.09,4.23-1.36,1.75-2.39,3.73-3.09,5.95-.7,2.22-1.06,4.47-1.06,6.77Z"/>
    <path class="cls-1" d="M313.52,91.39c-1.98,0-3.84-.33-5.56-.98-1.72-.65-3.21-1.56-4.46-2.74s-2.23-2.54-2.94-4.11c-.7-1.56-1.06-3.29-1.06-5.17s.43-3.72,1.29-5.36c.86-1.64,2.06-3.04,3.6-4.19,1.54-1.15,3.38-2.05,5.52-2.7,2.14-.65,4.49-.98,7.04-.98,1.83,0,3.61.16,5.36.47,1.75.31,3.3.76,4.66,1.33v-2.35c0-2.71-.77-4.8-2.31-6.26-1.54-1.46-3.82-2.19-6.85-2.19-2.19,0-4.33.39-6.42,1.17-1.42.53-2.86,1.23-4.32,2.1-1.15.68-2.63.24-3.21-.96l-1.21-2.5c-.51-1.06-.13-2.36.89-2.95,4.77-2.76,9.86-4.14,15.28-4.14,5.9,0,10.47,1.45,13.74,4.34,3.26,2.9,4.89,7.08,4.89,12.56v12.76c0,1.1.2,1.88.59,2.35.17.2.38.36.64.49.75.36,1.28,1.07,1.28,1.9v5.4c0,1.13-.83,2.09-1.95,2.25-.98.14-1.87.21-2.67.21-1.98,0-3.51-.44-4.58-1.33-1.07-.89-1.74-2.06-2-3.52l-.23-2.27c-1.83,2.4-4.04,4.23-6.65,5.48-2.61,1.25-5.4,1.88-8.37,1.88ZM316.49,83.72c1.77,0,3.46-.31,5.05-.94,1.59-.63,2.83-1.46,3.72-2.5,1.15-.89,1.72-1.88,1.72-2.97v-4.7c-1.25-.47-2.61-.85-4.07-1.13-1.46-.29-2.87-.43-4.23-.43-2.71,0-4.93.61-6.65,1.84-1.72,1.23-2.58,2.78-2.58,4.66,0,1.78.68,3.25,2.04,4.42,1.36,1.17,3.03,1.76,5.01,1.76Z"/>
    <path class="cls-1" d="M382.74,89.6l-11.22-16.76-5.64,5.56v9.94c0,1.26-1.02,2.27-2.27,2.27h-5.94c-1.26,0-2.27-1.02-2.27-2.27v-52.59c0-1.26,1.02-2.27,2.27-2.27h5.94c1.26,0,2.27,1.02,2.27,2.27v32.4l15.76-17.71c.43-.48,1.05-.76,1.7-.76h5.15c1.96,0,3,2.31,1.71,3.77l-11.95,13.6,13.88,19.99c1.05,1.51-.03,3.57-1.87,3.57h-5.63c-.76,0-1.47-.38-1.89-1.01Z"/>
    <path class="cls-1" d="M270.38,126.16c-.63,1.15-2.1,1.52-3.2.8,0,0-.02-.01-.03-.02-.97-.63-2.14-1.24-3.52-1.84-1.38-.6-2.88-1.11-4.5-1.53-1.62-.42-3.26-.63-4.93-.63-2.97,0-5.19.55-6.65,1.64-1.46,1.1-2.19,2.64-2.19,4.62,0,1.15.27,2.1.82,2.86.55.76,1.34,1.42,2.39,2,1.04.57,2.36,1.1,3.95,1.57,1.59.47,3.43.97,5.52,1.49,2.71.73,5.18,1.51,7.4,2.35,2.22.84,4.1,1.88,5.64,3.13,1.54,1.25,2.73,2.75,3.56,4.5.83,1.75,1.25,3.9,1.25,6.46,0,2.97-.56,5.52-1.68,7.63-1.12,2.11-2.64,3.82-4.54,5.13-1.91,1.3-4.1,2.26-6.57,2.86-2.48.6-5.08.9-7.79.9-4.18,0-8.3-.63-12.37-1.88-3.36-1.03-6.44-2.42-9.23-4.17-1-.62-1.34-1.91-.8-2.96l2.62-5.12c.61-1.2,2.12-1.6,3.26-.87.16.1.33.21.51.32,1.23.76,2.67,1.51,4.34,2.27,1.67.76,3.52,1.4,5.56,1.92,2.03.52,4.12.78,6.26.78,5.95,0,8.92-1.9,8.92-5.71,0-1.2-.34-2.22-1.02-3.05-.68-.83-1.64-1.56-2.9-2.19-1.25-.63-2.77-1.2-4.54-1.72-1.77-.52-3.76-1.1-5.95-1.72-2.66-.73-4.97-1.53-6.93-2.39s-3.59-1.88-4.89-3.05c-1.3-1.17-2.28-2.53-2.94-4.07-.65-1.54-.98-3.38-.98-5.52,0-2.82.52-5.32,1.57-7.51,1.04-2.19,2.49-4.02,4.34-5.48,1.85-1.46,4-2.57,6.46-3.33,2.45-.76,5.09-1.13,7.91-1.13,3.91,0,7.51.61,10.8,1.84,2.5.93,4.76,1.99,6.78,3.18,1.05.62,1.39,1.97.81,3.03l-2.52,4.63Z"/>
    <path class="cls-1" d="M314.75,165.41c.28,1.12-.31,2.28-1.39,2.68-.99.37-2.08.74-3.29,1.11-2.04.63-4.18.94-6.42.94-1.46,0-2.83-.18-4.11-.55-1.28-.36-2.4-.95-3.37-1.76-.97-.81-1.74-1.85-2.31-3.13-.57-1.28-.86-2.83-.86-4.66v-23.56h-3.13c-1.26,0-2.27-1.02-2.27-2.27v-3.51c0-1.26,1.02-2.27,2.27-2.27h3.13v-11.03c0-1.26,1.02-2.27,2.27-2.27h5.94c1.26,0,2.27,1.02,2.27,2.27v11.03h6.34c1.26,0,2.27,1.02,2.27,2.27v3.51c0,1.26-1.02,2.27-2.27,2.27h-6.34v20.04c0,1.46.38,2.49,1.13,3.09.76.6,1.68.9,2.78.9s2.16-.18,3.21-.55c.06-.02.12-.04.18-.06,1.26-.44,2.63.29,2.96,1.58l1,3.92Z"/>
    <path class="cls-1" d="M341.38,170.22c-4.23,0-7.44-1.36-9.63-4.07-2.19-2.71-3.29-6.73-3.29-12.05v-23.4c0-1.26,1.02-2.27,2.27-2.27h5.94c1.26,0,2.27,1.02,2.27,2.27v21.13c0,6.31,2.27,9.47,6.81,9.47,2.04,0,4-.61,5.91-1.84,1.9-1.23,3.46-3.09,4.66-5.6v-23.16c0-1.26,1.02-2.27,2.27-2.27h5.94c1.26,0,2.27,1.02,2.27,2.27v26.69c0,1.1.2,1.88.59,2.35.17.2.38.36.64.49.75.36,1.28,1.07,1.28,1.9v5.38c0,1.15-.87,2.12-2.01,2.26-.21.03-.42.05-.61.06-.7.05-1.34.08-1.92.08-1.88,0-3.4-.43-4.58-1.29-1.17-.86-1.87-2.05-2.07-3.56l-.23-3.29c-1.83,2.82-4.18,4.93-7.04,6.34-2.87,1.41-6.03,2.11-9.47,2.11Z"/>
    <path class="cls-1" d="M402.35,170.22c-2.82,0-5.43-.55-7.83-1.64-2.4-1.1-4.46-2.61-6.18-4.54-1.72-1.93-3.07-4.19-4.03-6.77-.97-2.58-1.45-5.36-1.45-8.34s.46-5.74,1.37-8.3c.91-2.56,2.18-4.8,3.8-6.73,1.62-1.93,3.55-3.44,5.79-4.54,2.24-1.1,4.7-1.64,7.36-1.64,3.03,0,5.75.73,8.18,2.19,2.43,1.46,4.32,3.37,5.67,5.71v-21.05c0-1.26,1.02-2.27,2.27-2.27h5.94c1.26,0,2.27,1.02,2.27,2.27v42.81c0,1.1.18,1.88.55,2.35.16.2.36.36.61.49.74.37,1.27,1.07,1.27,1.9v5.4c0,1.14-.85,2.09-1.97,2.25-.96.14-1.79.21-2.49.21-1.88,0-3.42-.47-4.62-1.41-1.2-.94-1.88-2.16-2.04-3.68l-.23-2.58c-1.51,2.61-3.56,4.58-6.14,5.91-2.58,1.33-5.28,2-8.1,2ZM405.09,161.3c.99,0,2.01-.17,3.05-.51,1.04-.34,2.01-.82,2.9-1.45.89-.63,1.68-1.36,2.39-2.19.7-.83,1.24-1.75,1.6-2.74v-9.78c-.42-1.15-1.01-2.2-1.76-3.17-.76-.97-1.62-1.8-2.58-2.5-.97-.7-1.98-1.26-3.05-1.68-1.07-.42-2.13-.63-3.17-.63-1.57,0-3.01.34-4.34,1.02-1.33.68-2.47,1.6-3.4,2.78-.94,1.17-1.67,2.52-2.19,4.03-.52,1.51-.78,3.08-.78,4.7,0,1.72.29,3.31.86,4.77.57,1.46,1.36,2.74,2.35,3.84.99,1.1,2.18,1.96,3.56,2.58,1.38.63,2.91.94,4.58.94Z"/>
    <path class="cls-1" d="M443.99,120.44v-5.86c0-1.26,1.02-2.27,2.27-2.27h5.94c1.26,0,2.27,1.02,2.27,2.27v5.86c0,1.26-1.02,2.27-2.27,2.27h-5.94c-1.26,0-2.27-1.02-2.27-2.27ZM443.99,167.17v-36.47c0-1.26,1.02-2.27,2.27-2.27h5.94c1.26,0,2.27,1.02,2.27,2.27v36.47c0,1.26-1.02,2.27-2.27,2.27h-5.94c-1.26,0-2.27-1.02-2.27-2.27Z"/>
    <path class="cls-1" d="M491.03,170.22c-3.34,0-6.34-.57-9-1.72s-4.92-2.7-6.77-4.66c-1.85-1.96-3.28-4.21-4.27-6.77-.99-2.56-1.49-5.24-1.49-8.06s.5-5.58,1.49-8.14c.99-2.56,2.41-4.81,4.27-6.77,1.85-1.96,4.11-3.51,6.77-4.66,2.66-1.15,5.66-1.72,9-1.72s6.33.57,8.96,1.72c2.63,1.15,4.88,2.7,6.73,4.66,1.85,1.96,3.27,4.21,4.27,6.77.99,2.56,1.49,5.27,1.49,8.14s-.5,5.51-1.49,8.06c-.99,2.56-2.4,4.81-4.23,6.77-1.83,1.96-4.07,3.51-6.73,4.66s-5.66,1.72-9,1.72ZM480.31,149.01c0,1.83.27,3.48.82,4.97.55,1.49,1.3,2.78,2.27,3.87.97,1.1,2.1,1.94,3.4,2.54,1.3.6,2.71.9,4.23.9s2.92-.3,4.23-.9c1.3-.6,2.44-1.45,3.4-2.54.97-1.1,1.72-2.4,2.27-3.91.55-1.51.82-3.18.82-5.01s-.27-3.42-.82-4.93c-.55-1.51-1.3-2.82-2.27-3.91-.97-1.1-2.1-1.94-3.4-2.54-1.3-.6-2.71-.9-4.23-.9s-2.92.31-4.23.94c-1.3.63-2.44,1.49-3.4,2.58-.97,1.1-1.72,2.4-2.27,3.91-.55,1.51-.82,3.16-.82,4.93Z"/>
  </g>
</svg>
