<?xml version="1.0" encoding="UTF-8"?>
<svg xmlns="http://www.w3.org/2000/svg" viewBox="45 20 175 165">
  <path fill="#B8C9FF" d="M202.7,175.63c-.47,2-2.1,3.42-4.02,3.7-.57.09-1.17.06-1.79-.09-11.32-2.62-21.94-6.93-31.6-12.68.39-.33.74-.67,1.09-1.03-.41-.23-.84-.49-1.26-.74-.36.34-.73.69-1.1,1.01-.43-.26-.84-.53-1.27-.8-.39.33-.79.63-1.2.93.43.29.86.56,1.3.81-3.3,2.5-7.29,4.12-11.63,4.49-.66.06-1.31.09-1.97.09-4.63,0-9.16-1.4-12.93-4.04-.59-.4-1.19-.87-1.76-1.36-1.03-.87-1.97-1.49-2.9-1.87-1.8-.76-3.06-.96-3.63-.87-.37.04-.9.21-1.41.39-1.23.41-2.52.73-3.8.94-1.21.2-2.49.3-3.77.3-12.23,0-22.61-9.55-23.65-21.72-.01-.24-.04-.64-.06-1.06-.04-1.13-.16-2.06-.37-2.84-1.17-4.36-4.73-7.8-9.09-8.76-.39-.09-.84-.13-1.4-.13h-.01c-.9,0-1.79-.04-2.66-.13h-.27c-14.62-1.5-25.66-13.72-25.66-28.44,0-11.78,7.39-22.51,18.39-26.7l.36-.11c.17-.06.66-.23.9-.31l.1-.04c5.12-2,8.42-6.86,8.42-12.36,0-.21-.01-.43-.01-.63l-.04-.69c-.56-14.39,10.65-26.64,24.98-27.3,12.41-.57,23.6,7.72,26.64,19.71.21.84.34,1.64.44,2.36.06.36.11.71.19,1.09.24,1.23,1.23,2.59,2.8,3.8,1.4,1.1,3.26,1.63,5.26,1.47.33-.03.69-.04,1.04-.06,4.67-.21,9.06.93,12.69,3.29,6.07,3.96,9.7,10.65,9.7,17.88,0,4.4-1.33,8.62-3.84,12.22-.9,1.29-1.92,2.33-2.79,3.19-.04.04-.09.09-.11.11-.23.26-.47.63-.53,1.17-.13.96.4,1.89,1.29,2.26.07.03.2.06.33.1l.33.1c6.93,2.09,11.76,8.93,11.76,16.67,0,5.15-2.23,10.03-6.12,13.39-.56.5-1.2.99-1.87,1.42.37.43.74.87,1.1,1.36,3.52,4.67,5.07,10.45,4.4,16.26-.21,1.86-.66,3.66-1.3,5.35-.17.46-.34.9-.54,1.33.41.24.83.49,1.24.73,8.59,4.99,18.01,8.76,28.01,11.08,2.6.6,4.22,3.2,3.62,5.79Z"/>
  <path fill="#0B0B0C" d="M178.58,126.07c.67-.43,1.31-.91,1.87-1.41,3.89-3.36,6.12-8.25,6.12-13.39,0-7.73-4.83-14.58-11.76-16.67l-.33-.1c-.13-.04-.26-.07-.33-.1-.89-.37-1.42-1.3-1.29-2.26.06-.54.3-.91.53-1.17.03-.03.07-.07.11-.11.87-.86,1.89-1.9,2.79-3.19,2.52-3.6,3.84-7.82,3.84-12.22,0-7.23-3.63-13.92-9.7-17.88-3.63-2.36-8.02-3.5-12.69-3.29-.36.01-.71.03-1.04.06-2,.16-3.86-.37-5.26-1.47-1.57-1.21-2.56-2.57-2.8-3.8-.07-.37-.13-.73-.19-1.09-.1-.71-.23-1.52-.44-2.36-3.04-11.99-14.24-20.28-26.64-19.71-14.34.66-25.54,12.91-24.98,27.3l.04.69c0,.2.01.41.01.63,0,5.5-3.3,10.36-8.42,12.36l-.1.04c-.24.09-.73.26-.9.31l-.36.11c-11.01,4.19-18.39,14.92-18.39,26.7,0,14.72,11.03,26.94,25.66,28.43h.27c.87.1,1.76.14,2.66.14h.01c.56,0,1.01.04,1.4.13,4.36.96,7.92,4.4,9.09,8.76.21.79.33,1.72.37,2.84.01.41.04.81.06,1.06,1.04,12.18,11.42,21.72,23.65,21.72,1.29,0,2.56-.1,3.77-.3,1.29-.21,2.57-.53,3.8-.94.51-.17,1.04-.34,1.41-.39.57-.09,1.83.11,3.63.87.93.39,1.87,1,2.9,1.87.57.49,1.17.96,1.76,1.36,3.77,2.64,8.3,4.04,12.93,4.04.66,0,1.31-.03,1.97-.09,4.34-.37,8.33-1.99,11.63-4.49.4-.3.8-.61,1.17-.94.37-.33.74-.67,1.1-1.01,1.62-1.6,2.99-3.44,4.06-5.47.23-.41.44-.84.64-1.29.2-.43.37-.87.54-1.33.64-1.69,1.09-3.49,1.3-5.35.67-5.82-.89-11.59-4.4-16.26-.36-.49-.73-.93-1.1-1.36ZM175.23,145.75c-.4-.29-.81-.59-1.21-.89-.13.49-.3.94-.51,1.39-.91,2.13-2.42,3.96-4.27,5.3-.4.3-.84.57-1.29.83.41.31.81.61,1.23.91-.44.29-.9.53-1.37.74-1.5.73-3.14,1.19-4.87,1.33-.43.04-.87.06-1.3.06-2.96,0-5.77-.87-8.2-2.57-.37-.26-.74-.54-1.1-.84-1.67-1.43-3.32-2.49-5.05-3.2-2.97-1.26-5.59-1.76-7.92-1.46-1.07.14-2.07.44-2.99.76-.77.27-1.6.47-2.46.6-.79.13-1.62.2-2.46.2-7.99,0-14.78-6.25-15.45-14.21-.01-.16-.03-.4-.03-.64-.07-1.74-.29-3.27-.66-4.67-1.99-7.4-7.82-13.02-15.25-14.66-.97-.23-2.02-.33-3.2-.33h-.53c-.53-.03-1.06-.06-1.56-.1-10.48-1.13-18.27-9.83-18.27-20.24,0-8.3,5.19-15.91,12.92-18.94.74-.23,1.26-.41,1.64-.59,8.28-3.3,13.59-11.13,13.59-20.01,0-.36,0-.73-.03-1.1,0-.16-.01-.3-.03-.46-.39-9.98,7.3-18.38,17.14-18.84,8.55-.39,16.22,5.3,18.31,13.53.1.41.19.96.27,1.54.07.47.14.96.24,1.44.63,3.22,2.64,6.22,5.8,8.7,3.02,2.36,6.9,3.49,10.95,3.19.26-.01.53-.03.81-.04,2.92-.14,5.63.54,7.82,1.97,3.73,2.43,5.96,6.53,5.96,10.98,0,2.7-.81,5.3-2.36,7.5-.51.73-1.19,1.43-1.79,2.02-.2.19-.39.39-.54.56-1.4,1.59-2.27,3.52-2.53,5.6-.57,4.55,1.99,9,6.2,10.83.49.21.93.34,1.29.44l.24.07c3.43,1.03,5.93,4.73,5.93,8.79,0,2.76-1.21,5.39-3.32,7.2-.29.26-.63.5-.97.73-3.13,2.03-4.52,5.8-3.44,9.38.29,1,.83,1.9,1.59,2.72.29.31.59.67.9,1.09,2.24,2.99,3.23,6.66,2.8,10.38-.06.53-.14,1.04-.27,1.54-.1.5-.24.99-.41,1.46Z"/>
  <path fill="#0B0B0C" d="M174.01,144.87c-.4-.3-.81-.6-1.21-.91-19.55-14.94-33.42-36.79-38.1-61.93-.49-2.62-3-4.34-5.63-3.86-2.62.49-4.34,3.02-3.86,5.63,5.12,27.41,20.2,51.27,41.46,67.63.41.31.84.64,1.27.96.41.31.81.61,1.23.91.44-.26.86-.56,1.26-.87,1.82-1.39,3.29-3.22,4.26-5.32.2-.44.39-.89.54-1.36-.4-.29-.81-.59-1.21-.89-.4-.3-.81-.6-1.21-.91Z"/>
  <path fill="#0B0B0C" d="M215.12,167.96c-.47,2-2.1,3.42-4.02,3.7-.57.09-1.17.06-1.79-.09-11.32-2.62-21.94-6.93-31.6-12.68-.43-.24-.84-.5-1.27-.76s-.84-.53-1.27-.8c-2.04-1.27-4.04-2.63-6-4.04-.41-.3-.81-.6-1.23-.91-.43-.31-.86-.64-1.27-.96-21.27-16.36-36.35-40.22-41.46-67.63-.49-2.62,1.24-5.15,3.86-5.63,2.63-.49,5.15,1.24,5.63,3.86,4.69,25.14,18.55,46.99,38.1,61.93.4.31.81.61,1.21.91.4.3.81.6,1.21.89,1.89,1.36,3.82,2.64,5.79,3.87.41.24.81.5,1.23.74.41.24.83.49,1.24.73,8.59,4.99,18.01,8.76,28.01,11.08,2.6.6,4.22,3.2,3.62,5.79Z"/>
</svg>
